<svg xmlns="http://www.w3.org/2000/svg" viewBox="0 0 100 100">
  <defs>
    <linearGradient id="glass-border" x1="0" y1="0" x2="1" y2="1">
      <stop offset="0%"   stop-color="#ffffff" stop-opacity="0.9"/>
      <stop offset="45%"  stop-color="#ffffff" stop-opacity="0.35"/>
      <stop offset="100%" stop-color="#ffffff" stop-opacity="0.08"/>
    </linearGradient>
    <linearGradient id="top-sheen" x1="0" y1="0" x2="0" y2="1">
      <stop offset="0%"   stop-color="#ffffff" stop-opacity="0.18"/>
      <stop offset="100%" stop-color="#ffffff" stop-opacity="0"/>
    </linearGradient>
    <clipPath id="clip">
      <rect width="100" height="100" rx="22"/>
    </clipPath>
  </defs>
  <rect width="100" height="100" rx="22" fill="#070c08"/>

  <circle cx="50" cy="50" r="36" fill="none" stroke="#e8f4ec" stroke-width="5.5" opacity="0.65"/>
  <rect x="0.75" y="0.75" width="98.5" height="98.5" rx="21.5" fill="none" stroke="url(#glass-border)" stroke-width="2"/>
  <rect x="0" y="0" width="100" height="50" rx="22" fill="url(#top-sheen)" clip-path="url(#clip)"/>

  <path d="M50 14 L56.5 50 L50 43 L43.5 50 Z" fill="#e03535"/>
  <path d="M50 86 L43.5 50 L50 57 L56.5 50 Z" fill="#e8f4ec" opacity="0.85"/>
  <path d="M86 50 L50 43.5 L57 50 L50 56.5 Z" fill="#e8f4ec" opacity="0.75"/>
  <path d="M14 50 L50 56.5 L43 50 L50 43.5 Z" fill="#e8f4ec" opacity="0.75"/>

  <circle cx="50" cy="50" r="4.5" fill="#070c08"/>
  <circle cx="50" cy="50" r="3.2" fill="#e8f4ec" opacity="0.9"/>
  <circle cx="50" cy="50" r="1.6" fill="#e03535"/>
</svg>
